<svg width="44" height="44" viewBox="0 0 44 44" fill="none" xmlns="http://www.w3.org/2000/svg">
<path d="M12.7598 0.650391H31.2402C37.9211 0.650517 43.3495 6.07894 43.3496 12.7598V31.2402C43.3495 34.4519 42.0737 37.5317 39.8027 39.8027C37.5317 42.0737 34.4519 43.3495 31.2402 43.3496H12.7598C6.07894 43.3495 0.650517 37.9211 0.650391 31.2402V12.7598C0.650453 9.54808 1.92626 6.46828 4.19727 4.19727C6.46828 1.92626 9.54808 0.650453 12.7598 0.650391ZM12.3203 3.75C10.0474 3.75 7.86695 4.65258 6.25977 6.25977C4.65258 7.86695 3.75 10.0474 3.75 12.3203V31.6797C3.75 36.4167 7.58333 40.25 12.3203 40.25H31.6797C33.9526 40.25 36.133 39.3474 37.7402 37.7402C39.3474 36.133 40.25 33.9526 40.25 31.6797V12.3203C40.25 7.58333 36.4167 3.75 31.6797 3.75H12.3203ZM22 11.6504C24.745 11.6504 27.3774 12.7406 29.3184 14.6816C31.2594 16.6226 32.3496 19.255 32.3496 22C32.3496 24.745 31.2594 27.3774 29.3184 29.3184C27.3774 31.2594 24.745 32.3496 22 32.3496C19.255 32.3496 16.6226 31.2594 14.6816 29.3184C12.7406 27.3774 11.6504 24.745 11.6504 22C11.6504 19.255 12.7406 16.6226 14.6816 14.6816C16.6226 12.7406 19.255 11.6504 22 11.6504ZM22 14.75C20.0772 14.75 18.2327 15.5134 16.873 16.873C15.5134 18.2327 14.75 20.0772 14.75 22C14.75 23.9228 15.5134 25.7673 16.873 27.127C18.2327 28.4866 20.0772 29.25 22 29.25C23.9228 29.25 25.7673 28.4866 27.127 27.127C28.4866 25.7673 29.25 23.9228 29.25 22C29.25 20.0772 28.4866 18.2327 27.127 16.873C25.7673 15.5134 23.9228 14.75 22 14.75ZM33.5498 8.34961C34.1068 8.34961 34.6413 8.57102 35.0352 8.96484C35.429 9.35867 35.6504 9.89324 35.6504 10.4502C35.6503 11.0069 35.4288 11.5408 35.0352 11.9346C34.6413 12.3284 34.1068 12.5498 33.5498 12.5498C32.9929 12.5498 32.4592 12.3284 32.0654 11.9346C31.6717 11.5408 31.4502 11.0071 31.4502 10.4502C31.4502 9.89324 31.6716 9.35867 32.0654 8.96484C32.4592 8.57125 32.9931 8.34966 33.5498 8.34961Z" stroke="white" stroke-width="1.3"/>
</svg>
