<svg width="95" height="95" viewBox="0 0 95 95" fill="none" xmlns="http://www.w3.org/2000/svg">
<path d="M0 71.25V65.0156C0 62.1788 1.45139 59.8698 4.35417 58.0885C7.25694 56.3073 11.0833 55.4167 15.8333 55.4167C16.691 55.4167 17.5156 55.4332 18.3073 55.4661C19.099 55.4991 19.8576 55.5816 20.5833 55.7135C19.6597 57.099 18.967 58.5503 18.5052 60.0677C18.0434 61.5851 17.8125 63.1684 17.8125 64.8177V71.25H0ZM23.75 71.25V64.8177C23.75 62.7066 24.3273 60.7769 25.4818 59.0286C26.6363 57.2804 28.2691 55.7465 30.3802 54.4271C32.4913 53.1076 35.0148 52.1181 37.9505 51.4583C40.8863 50.7986 44.0694 50.4688 47.5 50.4688C50.9965 50.4688 54.2127 50.7986 57.1484 51.4583C60.0842 52.1181 62.6076 53.1076 64.7188 54.4271C66.8299 55.7465 68.4462 57.2804 69.5677 59.0286C70.6892 60.7769 71.25 62.7066 71.25 64.8177V71.25H23.75ZM77.1875 71.25V64.8177C77.1875 63.1024 76.9731 61.4861 76.5443 59.9688C76.1154 58.4514 75.4722 57.033 74.6146 55.7135C75.3403 55.5816 76.0825 55.4991 76.8411 55.4661C77.5998 55.4332 78.375 55.4167 79.1667 55.4167C83.9167 55.4167 87.743 56.2908 90.6458 58.0391C93.5486 59.7873 95 62.1128 95 65.0156V71.25H77.1875ZM32.1615 63.3333H62.9375C62.2778 62.0139 60.447 60.8594 57.4453 59.8698C54.4436 58.8802 51.1285 58.3854 47.5 58.3854C43.8715 58.3854 40.5564 58.8802 37.5547 59.8698C34.553 60.8594 32.7552 62.0139 32.1615 63.3333ZM15.8333 51.4583C13.6562 51.4583 11.7925 50.6832 10.2422 49.1328C8.69184 47.5825 7.91667 45.7188 7.91667 43.5417C7.91667 41.2986 8.69184 39.4184 10.2422 37.901C11.7925 36.3837 13.6562 35.625 15.8333 35.625C18.0764 35.625 19.9566 36.3837 21.474 37.901C22.9913 39.4184 23.75 41.2986 23.75 43.5417C23.75 45.7188 22.9913 47.5825 21.474 49.1328C19.9566 50.6832 18.0764 51.4583 15.8333 51.4583ZM79.1667 51.4583C76.9896 51.4583 75.1259 50.6832 73.5755 49.1328C72.0252 47.5825 71.25 45.7188 71.25 43.5417C71.25 41.2986 72.0252 39.4184 73.5755 37.901C75.1259 36.3837 76.9896 35.625 79.1667 35.625C81.4097 35.625 83.2899 36.3837 84.8073 37.901C86.3247 39.4184 87.0833 41.2986 87.0833 43.5417C87.0833 45.7188 86.3247 47.5825 84.8073 49.1328C83.2899 50.6832 81.4097 51.4583 79.1667 51.4583ZM47.5 47.5C44.2014 47.5 41.3976 46.3455 39.0885 44.0365C36.7795 41.7274 35.625 38.9236 35.625 35.625C35.625 32.2604 36.7795 29.4401 39.0885 27.1641C41.3976 24.888 44.2014 23.75 47.5 23.75C50.8646 23.75 53.6849 24.888 55.9609 27.1641C58.237 29.4401 59.375 32.2604 59.375 35.625C59.375 38.9236 58.237 41.7274 55.9609 44.0365C53.6849 46.3455 50.8646 47.5 47.5 47.5ZM47.5 39.5833C48.6215 39.5833 49.5616 39.204 50.3203 38.4453C51.079 37.6866 51.4583 36.7465 51.4583 35.625C51.4583 34.5035 51.079 33.5634 50.3203 32.8047C49.5616 32.046 48.6215 31.6667 47.5 31.6667C46.3785 31.6667 45.4384 32.046 44.6797 32.8047C43.921 33.5634 43.5417 34.5035 43.5417 35.625C43.5417 36.7465 43.921 37.6866 44.6797 38.4453C45.4384 39.204 46.3785 39.5833 47.5 39.5833Z" fill="#480165"/>
</svg>
