<svg width="80" height="80" viewBox="0 0 80 80" fill="none" xmlns="http://www.w3.org/2000/svg">
<path d="M69.4664 15.3669C67.7639 13.6636 65.7425 12.3124 63.5176 11.3905C61.2927 10.4686 58.908 9.99414 56.4998 9.99414C54.0915 9.99414 51.7068 10.4686 49.4819 11.3905C47.257 12.3124 45.2356 13.6636 43.5331 15.3669L39.9997 18.9002L36.4664 15.3669C33.0274 11.9279 28.3632 9.99592 23.4997 9.99592C18.6363 9.99592 13.9721 11.9279 10.5331 15.3669C7.09411 18.8059 5.16211 23.4701 5.16211 28.3336C5.16211 33.197 7.09411 37.8613 10.5331 41.3002L39.9997 70.7669L69.4664 41.3002C71.1697 39.5977 72.5209 37.5763 73.4428 35.3514C74.3647 33.1265 74.8392 30.7419 74.8392 28.3336C74.8392 25.9253 74.3647 23.5406 73.4428 21.3157C72.5209 19.0908 71.1697 17.0694 69.4664 15.3669Z" stroke="#2F0042" stroke-width="4" stroke-linecap="round" stroke-linejoin="round"/>
</svg>
