<svg width="46" height="45" viewBox="0 0 46 45" fill="none" xmlns="http://www.w3.org/2000/svg">
<path d="M5.37895 9.88254C7.79738 9.88254 9.75791 7.89411 9.75791 5.44127C9.75791 2.98842 7.79738 1 5.37895 1C2.96052 1 1 2.98842 1 5.44127C1 7.89411 2.96052 9.88254 5.37895 9.88254Z" stroke="white" stroke-width="2" stroke-linecap="round" stroke-linejoin="round"/>
<path d="M1 16.5449H9.75791V43.1925H1V16.5449ZM44.7895 43.1925H36.0316V27.648C36.0316 26.4701 35.5703 25.3405 34.7491 24.5076C33.9279 23.6747 32.814 23.2068 31.6527 23.2068C30.4913 23.2068 29.3775 23.6747 28.5563 24.5076C27.7351 25.3405 27.2737 26.4701 27.2737 27.648V43.1925H18.5158V27.648C18.5158 24.1143 19.8999 20.7254 22.3635 18.2267C24.8272 15.728 28.1686 14.3242 31.6527 14.3242C35.1368 14.3242 38.4782 15.728 40.9418 18.2267C43.4055 20.7254 44.7895 24.1143 44.7895 27.648V43.1925Z" stroke="white" stroke-width="2" stroke-linecap="round" stroke-linejoin="round"/>
</svg>
