<svg width="55" height="46" viewBox="0 0 55 46" fill="none" xmlns="http://www.w3.org/2000/svg">
<path d="M4.40137 1.73828C6.39159 0.645594 8.92421 0.690345 10.9805 2.38379L14.2275 5.05957L27.499 15.9844L40.7725 5.05469L44.0195 2.38379L44.2139 2.23047C46.2329 0.690201 48.6696 0.68121 50.5977 1.73926C52.5766 2.82541 54 5.01579 54 7.7373V40.1816C53.9999 42.7528 52.0824 44.998 49.5234 44.998H40.4082V24.4883L28.1357 34.5947L27.5 35.1182L26.8643 34.5947L14.5918 24.4883V45H5.47656C4.87482 45 4.28141 44.8693 3.73145 44.6191C3.18197 44.3692 2.68913 44.0059 2.27832 43.5547C1.86759 43.1036 1.54582 42.5728 1.32812 41.9951C1.11049 41.4176 0.999655 40.801 1 40.1807V7.7373C1 5.01603 2.42256 2.82484 4.40137 1.73828Z" stroke="white" stroke-width="2"/>
</svg>
