<svg width="68" height="68" viewBox="0 0 68 68" fill="none" xmlns="http://www.w3.org/2000/svg">
<g clip-path="url(#clip0_3047_557)">
<path d="M24.0416 21.213C27.4173 24.5886 29.3137 29.167 29.3137 33.9409C29.3137 38.7148 27.4173 43.2932 24.0416 46.6688M33.9411 11.3135C39.9423 17.3146 43.3137 25.454 43.3137 33.9409C43.3137 42.4278 39.9423 50.5671 33.9411 56.5683M15.5563 35.3551C14.7753 36.1362 13.509 36.1362 12.7279 35.3551C11.9469 34.5741 11.9469 33.3077 12.7279 32.5267C13.509 31.7456 14.7753 31.7456 15.5563 32.5267C16.3374 33.3077 16.3374 34.5741 15.5563 35.3551Z" stroke="#2F0042" stroke-width="4" stroke-linecap="round" stroke-linejoin="round"/>
</g>
<defs>
<clipPath id="clip0_3047_557">
<rect width="48" height="48" fill="white" transform="translate(33.9411) rotate(45)"/>
</clipPath>
</defs>
</svg>
