<svg width="80" height="80" viewBox="0 0 80 80" fill="none" xmlns="http://www.w3.org/2000/svg">
<path d="M56.6663 70V63.3333C56.6663 59.7971 55.2616 56.4057 52.7611 53.9052C50.2606 51.4048 46.8692 50 43.333 50H16.6663C13.1301 50 9.73874 51.4048 7.23825 53.9052C4.73777 56.4057 3.33301 59.7971 3.33301 63.3333V70M76.6663 70V63.3333C76.6641 60.3791 75.6809 57.5092 73.8709 55.1744C72.0609 52.8395 69.5268 51.1719 66.6663 50.4333M53.333 10.4333C56.2011 11.1677 58.7431 12.8357 60.5585 15.1744C62.3738 17.5131 63.3592 20.3894 63.3592 23.35C63.3592 26.3106 62.3738 29.1869 60.5585 31.5256C58.7431 33.8643 56.2011 35.5323 53.333 36.2667M43.333 23.3333C43.333 30.6971 37.3635 36.6667 29.9997 36.6667C22.6359 36.6667 16.6663 30.6971 16.6663 23.3333C16.6663 15.9695 22.6359 10 29.9997 10C37.3635 10 43.333 15.9695 43.333 23.3333Z" stroke="#2F0042" stroke-width="4" stroke-linecap="round" stroke-linejoin="round"/>
</svg>
